<svg width="151" height="18" viewBox="0 0 151 18" fill="none" xmlns="http://www.w3.org/2000/svg">
<path d="M0.599969 17.6399C0.423969 17.6399 0.279969 17.5839 0.167969 17.4719C0.0559692 17.3599 -3.08156e-05 17.2159 -3.08156e-05 17.0399V1.43989C-3.08156e-05 1.26389 0.0559692 1.11989 0.167969 1.00789C0.279969 0.895892 0.423969 0.839891 0.599969 0.839891H7.91997C9.29597 0.839891 10.424 1.03189 11.304 1.41589C12.184 1.79989 12.832 2.35189 13.248 3.07189C13.68 3.77589 13.896 4.61589 13.896 5.59189C13.896 6.16789 13.784 6.67989 13.56 7.12789C13.352 7.55989 13.088 7.91989 12.768 8.20789C12.464 8.49589 12.176 8.70389 11.904 8.83189C12.512 9.11989 13.048 9.59189 13.512 10.2479C13.992 10.9039 14.232 11.6719 14.232 12.5519C14.232 13.6079 13.992 14.5199 13.512 15.2879C13.048 16.0399 12.36 16.6239 11.448 17.0399C10.552 17.4399 9.44797 17.6399 8.13597 17.6399H0.599969ZM4.29597 14.5199H7.65597C8.34397 14.5199 8.86397 14.3199 9.21597 13.9199C9.56797 13.5199 9.74397 13.0639 9.74397 12.5519C9.74397 11.9919 9.55997 11.5199 9.19197 11.1359C8.83997 10.7519 8.32797 10.5599 7.65597 10.5599H4.29597V14.5199ZM4.29597 7.51189H7.43997C8.09597 7.51189 8.58397 7.34389 8.90397 7.00789C9.23997 6.67189 9.40797 6.23989 9.40797 5.71189C9.40797 5.19989 9.23997 4.78389 8.90397 4.46389C8.58397 4.12789 8.09597 3.95989 7.43997 3.95989H4.29597V7.51189ZM17.1011 17.6399C16.9251 17.6399 16.7811 17.5839 16.6691 17.4719C16.5571 17.3599 16.5011 17.2159 16.5011 17.0399V5.75989C16.5011 5.59989 16.5571 5.46389 16.6691 5.35189C16.7811 5.22389 16.9251 5.15989 17.1011 5.15989H19.8611C20.0371 5.15989 20.1811 5.22389 20.2931 5.35189C20.4051 5.46389 20.4611 5.59989 20.4611 5.75989V6.71989C20.8931 6.22389 21.4051 5.83989 21.9971 5.56789C22.6051 5.29589 23.2851 5.15989 24.0371 5.15989H25.0931C25.2531 5.15989 25.3891 5.21589 25.5011 5.32789C25.6291 5.43989 25.6931 5.58389 25.6931 5.75989V8.23189C25.6931 8.39189 25.6291 8.53589 25.5011 8.66389C25.3891 8.77589 25.2531 8.83189 25.0931 8.83189H22.7651C22.1091 8.83189 21.5971 9.01589 21.2291 9.38389C20.8771 9.73589 20.7011 10.2399 20.7011 10.8959V17.0399C20.7011 17.2159 20.6371 17.3599 20.5091 17.4719C20.3971 17.5839 20.2531 17.6399 20.0771 17.6399H17.1011ZM30.7992 17.8799C29.9352 17.8799 29.1592 17.7199 28.4712 17.3999C27.7992 17.0639 27.2632 16.6159 26.8632 16.0559C26.4632 15.4959 26.2632 14.8639 26.2632 14.1599C26.2632 13.0239 26.7272 12.1279 27.6552 11.4719C28.5832 10.7999 29.8152 10.3439 31.3512 10.1039L34.3512 9.64789V9.31189C34.3512 8.73589 34.2312 8.29589 33.9912 7.99189C33.7512 7.68789 33.3112 7.53589 32.6712 7.53589C32.2232 7.53589 31.8552 7.62389 31.5672 7.79989C31.2952 7.97589 31.0792 8.21589 30.9192 8.51989C30.7752 8.72789 30.5752 8.83189 30.3192 8.83189H27.6312C27.4552 8.83189 27.3192 8.78389 27.2232 8.68789C27.1272 8.57589 27.0872 8.44789 27.1032 8.30389C27.1032 8.01589 27.2072 7.68789 27.4152 7.31989C27.6392 6.93589 27.9752 6.55989 28.4232 6.19189C28.8712 5.82389 29.4472 5.51989 30.1512 5.27989C30.8552 5.03989 31.7032 4.91989 32.6952 4.91989C33.7352 4.91989 34.6232 5.03989 35.3592 5.27989C36.0952 5.51989 36.6872 5.85589 37.1352 6.28789C37.5992 6.71989 37.9432 7.23189 38.1672 7.82389C38.3912 8.39989 38.5032 9.03989 38.5032 9.74389V17.0399C38.5032 17.2159 38.4392 17.3599 38.3112 17.4719C38.1992 17.5839 38.0632 17.6399 37.9032 17.6399H35.1192C34.9432 17.6399 34.7992 17.5839 34.6872 17.4719C34.5752 17.3599 34.5192 17.2159 34.5192 17.0399V16.1999C34.3112 16.5039 34.0312 16.7839 33.6792 17.0399C33.3272 17.2959 32.9112 17.4959 32.4312 17.6399C31.9672 17.7999 31.4232 17.8799 30.7992 17.8799ZM31.9272 15.1439C32.3912 15.1439 32.8072 15.0479 33.1752 14.8559C33.5592 14.6479 33.8552 14.3359 34.0632 13.9199C34.2872 13.4879 34.3992 12.9519 34.3992 12.3119V11.9759L32.3592 12.3359C31.6072 12.4639 31.0552 12.6639 30.7032 12.9359C30.3672 13.1919 30.1992 13.4959 30.1992 13.8479C30.1992 14.1199 30.2792 14.3519 30.4392 14.5439C30.5992 14.7359 30.8072 14.8879 31.0632 14.9999C31.3192 15.0959 31.6072 15.1439 31.9272 15.1439ZM41.6782 17.6399C41.5022 17.6399 41.3582 17.5839 41.2462 17.4719C41.1342 17.3599 41.0782 17.2159 41.0782 17.0399V5.75989C41.0782 5.58389 41.1342 5.43989 41.2462 5.32789C41.3582 5.21589 41.5022 5.15989 41.6782 5.15989H44.5102C44.6702 5.15989 44.8062 5.21589 44.9182 5.32789C45.0462 5.43989 45.1102 5.58389 45.1102 5.75989V17.0399C45.1102 17.2159 45.0462 17.3599 44.9182 17.4719C44.8062 17.5839 44.6702 17.6399 44.5102 17.6399H41.6782ZM41.6542 3.35989C41.4782 3.35989 41.3342 3.30389 41.2222 3.19189C41.1102 3.07989 41.0542 2.93589 41.0542 2.75989V0.623891C41.0542 0.447892 41.1102 0.303892 41.2222 0.191891C41.3342 0.0638919 41.4782 -0.000107765 41.6542 -0.000107765H44.5102C44.6862 -0.000107765 44.8302 0.0638919 44.9422 0.191891C45.0702 0.303892 45.1342 0.447892 45.1342 0.623891V2.75989C45.1342 2.93589 45.0702 3.07989 44.9422 3.19189C44.8302 3.30389 44.6862 3.35989 44.5102 3.35989H41.6542ZM49.1386 17.6399C48.9626 17.6399 48.8186 17.5839 48.7066 17.4719C48.5946 17.3599 48.5386 17.2159 48.5386 17.0399V5.75989C48.5386 5.58389 48.5946 5.43989 48.7066 5.32789C48.8186 5.21589 48.9626 5.15989 49.1386 5.15989H51.8986C52.0746 5.15989 52.2186 5.21589 52.3306 5.32789C52.4426 5.43989 52.4986 5.58389 52.4986 5.75989V6.67189C52.9146 6.17589 53.4586 5.75989 54.1306 5.42389C54.8026 5.08789 55.5946 4.91989 56.5066 4.91989C57.4346 4.91989 58.2506 5.12789 58.9546 5.54389C59.6746 5.95989 60.2346 6.57589 60.6346 7.39189C61.0506 8.19189 61.2586 9.17589 61.2586 10.3439V17.0399C61.2586 17.2159 61.1946 17.3599 61.0666 17.4719C60.9546 17.5839 60.8186 17.6399 60.6586 17.6399H57.6346C57.4746 17.6399 57.3306 17.5839 57.2026 17.4719C57.0906 17.3599 57.0346 17.2159 57.0346 17.0399V10.4879C57.0346 9.73589 56.8506 9.15989 56.4826 8.75989C56.1306 8.34389 55.6026 8.13589 54.8986 8.13589C54.2426 8.13589 53.7146 8.34389 53.3146 8.75989C52.9306 9.15989 52.7386 9.73589 52.7386 10.4879V17.0399C52.7386 17.2159 52.6746 17.3599 52.5466 17.4719C52.4346 17.5839 52.2986 17.6399 52.1386 17.6399H49.1386ZM67.0727 17.6399C66.8327 17.6399 66.6567 17.5839 66.5447 17.4719C66.4327 17.3599 66.3447 17.2159 66.2807 17.0399L62.8247 5.92789C62.7927 5.84789 62.7767 5.76789 62.7767 5.68789C62.7767 5.54389 62.8327 5.42389 62.9447 5.32789C63.0567 5.21589 63.1847 5.15989 63.3287 5.15989H65.8007C66.0087 5.15989 66.1687 5.21589 66.2807 5.32789C66.4087 5.43989 66.4887 5.55189 66.5207 5.66389L68.5367 12.5279L70.6967 5.68789C70.7287 5.57589 70.8007 5.46389 70.9127 5.35189C71.0407 5.22389 71.2167 5.15989 71.4407 5.15989H73.0247C73.2487 5.15989 73.4167 5.22389 73.5287 5.35189C73.6567 5.46389 73.7367 5.57589 73.7687 5.68789L75.9287 12.5279L77.9447 5.66389C77.9767 5.55189 78.0487 5.43989 78.1607 5.32789C78.2887 5.21589 78.4567 5.15989 78.6647 5.15989H81.1367C81.2807 5.15989 81.4007 5.21589 81.4967 5.32789C81.6087 5.42389 81.6647 5.54389 81.6647 5.68789C81.6647 5.76789 81.6567 5.84789 81.6407 5.92789L78.1847 17.0399C78.1367 17.2159 78.0487 17.3599 77.9207 17.4719C77.8087 17.5839 77.6327 17.6399 77.3927 17.6399H75.2327C75.0087 17.6399 74.8327 17.5839 74.7047 17.4719C74.5767 17.3599 74.4887 17.2159 74.4407 17.0399L72.2327 10.4639L70.0247 17.0399C69.9767 17.2159 69.8887 17.3599 69.7607 17.4719C69.6327 17.5839 69.4567 17.6399 69.2327 17.6399H67.0727ZM86.8909 17.8799C86.0269 17.8799 85.2509 17.7199 84.5629 17.3999C83.8909 17.0639 83.3549 16.6159 82.9549 16.0559C82.5549 15.4959 82.3549 14.8639 82.3549 14.1599C82.3549 13.0239 82.8189 12.1279 83.7469 11.4719C84.6749 10.7999 85.9069 10.3439 87.4429 10.1039L90.4429 9.64789V9.31189C90.4429 8.73589 90.3229 8.29589 90.0829 7.99189C89.8429 7.68789 89.4029 7.53589 88.7629 7.53589C88.3149 7.53589 87.9469 7.62389 87.6589 7.79989C87.3869 7.97589 87.1709 8.21589 87.0109 8.51989C86.8669 8.72789 86.6669 8.83189 86.4109 8.83189H83.7229C83.5469 8.83189 83.4109 8.78389 83.3149 8.68789C83.2189 8.57589 83.1789 8.44789 83.1949 8.30389C83.1949 8.01589 83.2989 7.68789 83.5069 7.31989C83.7309 6.93589 84.0669 6.55989 84.5149 6.19189C84.9629 5.82389 85.5389 5.51989 86.2429 5.27989C86.9469 5.03989 87.7949 4.91989 88.7869 4.91989C89.8269 4.91989 90.7149 5.03989 91.4509 5.27989C92.1869 5.51989 92.7789 5.85589 93.2269 6.28789C93.6909 6.71989 94.0349 7.23189 94.2589 7.82389C94.4829 8.39989 94.5949 9.03989 94.5949 9.74389V17.0399C94.5949 17.2159 94.5309 17.3599 94.4029 17.4719C94.2909 17.5839 94.1549 17.6399 93.9949 17.6399H91.2109C91.0349 17.6399 90.8909 17.5839 90.7789 17.4719C90.6669 17.3599 90.6109 17.2159 90.6109 17.0399V16.1999C90.4029 16.5039 90.1229 16.7839 89.7709 17.0399C89.4189 17.2959 89.0029 17.4959 88.5229 17.6399C88.0589 17.7999 87.5149 17.8799 86.8909 17.8799ZM88.0189 15.1439C88.4829 15.1439 88.8989 15.0479 89.2669 14.8559C89.6509 14.6479 89.9469 14.3359 90.1549 13.9199C90.3789 13.4879 90.4909 12.9519 90.4909 12.3119V11.9759L88.4509 12.3359C87.6989 12.4639 87.1469 12.6639 86.7949 12.9359C86.4589 13.1919 86.2909 13.4959 86.2909 13.8479C86.2909 14.1199 86.3709 14.3519 86.5309 14.5439C86.6909 14.7359 86.8989 14.8879 87.1549 14.9999C87.4109 15.0959 87.6989 15.1439 88.0189 15.1439ZM101.258 17.6399C101.018 17.6399 100.842 17.5839 100.73 17.4719C100.618 17.3439 100.522 17.1999 100.442 17.0399L95.9063 5.90389C95.8743 5.83989 95.8583 5.76789 95.8583 5.68789C95.8583 5.54389 95.9063 5.42389 96.0023 5.32789C96.1143 5.21589 96.2503 5.15989 96.4103 5.15989H99.1223C99.3303 5.15989 99.4903 5.21589 99.6023 5.32789C99.7143 5.43989 99.7863 5.55189 99.8183 5.66389L102.53 13.0319L105.266 5.66389C105.298 5.55189 105.37 5.43989 105.482 5.32789C105.594 5.21589 105.754 5.15989 105.962 5.15989H108.674C108.818 5.15989 108.946 5.21589 109.058 5.32789C109.17 5.42389 109.226 5.54389 109.226 5.68789C109.226 5.76789 109.21 5.83989 109.178 5.90389L104.642 17.0399C104.578 17.1999 104.482 17.3439 104.354 17.4719C104.242 17.5839 104.058 17.6399 103.802 17.6399H101.258ZM116.25 17.8799C114.362 17.8799 112.858 17.3679 111.738 16.3439C110.618 15.3199 110.034 13.7999 109.986 11.7839C109.986 11.6719 109.986 11.5279 109.986 11.3519C109.986 11.1759 109.986 11.0399 109.986 10.9439C110.034 9.67989 110.314 8.59989 110.826 7.70389C111.354 6.79189 112.074 6.10389 112.986 5.63989C113.914 5.15989 114.994 4.91989 116.226 4.91989C117.634 4.91989 118.794 5.19989 119.706 5.75989C120.634 6.31989 121.33 7.07989 121.794 8.03989C122.258 8.99989 122.49 10.0959 122.49 11.3279V11.9039C122.49 12.0799 122.426 12.2239 122.298 12.3359C122.186 12.4479 122.05 12.5039 121.89 12.5039H114.21C114.21 12.5199 114.21 12.5439 114.21 12.5759C114.21 12.6079 114.21 12.6399 114.21 12.6719C114.226 13.1359 114.306 13.5599 114.45 13.9439C114.594 14.3279 114.818 14.6319 115.122 14.8559C115.426 15.0799 115.794 15.1919 116.226 15.1919C116.546 15.1919 116.81 15.1439 117.018 15.0479C117.242 14.9359 117.426 14.8159 117.57 14.6879C117.714 14.5439 117.826 14.4239 117.906 14.3279C118.05 14.1679 118.162 14.0719 118.242 14.0399C118.338 13.9919 118.482 13.9679 118.674 13.9679H121.65C121.81 13.9679 121.938 14.0159 122.034 14.1119C122.146 14.1919 122.194 14.3119 122.178 14.4719C122.162 14.7439 122.026 15.0719 121.77 15.4559C121.514 15.8399 121.138 16.2239 120.642 16.6079C120.162 16.9759 119.554 17.2799 118.818 17.5199C118.082 17.7599 117.226 17.8799 116.25 17.8799ZM114.21 10.1279H118.266V10.0799C118.266 9.56789 118.186 9.11989 118.026 8.73589C117.882 8.35189 117.65 8.05589 117.33 7.84789C117.026 7.63989 116.658 7.53589 116.226 7.53589C115.794 7.53589 115.426 7.63989 115.122 7.84789C114.834 8.05589 114.61 8.35189 114.45 8.73589C114.29 9.11989 114.21 9.56789 114.21 10.0799V10.1279ZM125.086 17.6399C124.91 17.6399 124.766 17.5839 124.654 17.4719C124.542 17.3599 124.486 17.2159 124.486 17.0399V13.9919C124.486 13.8319 124.542 13.6959 124.654 13.5839C124.766 13.4559 124.91 13.3919 125.086 13.3919H128.11C128.286 13.3919 128.43 13.4559 128.542 13.5839C128.67 13.6959 128.734 13.8319 128.734 13.9919V17.0399C128.734 17.2159 128.67 17.3599 128.542 17.4719C128.43 17.5839 128.286 17.6399 128.11 17.6399H125.086ZM131.893 17.6399C131.717 17.6399 131.573 17.5839 131.461 17.4719C131.349 17.3599 131.293 17.2159 131.293 17.0399V5.75989C131.293 5.58389 131.349 5.43989 131.461 5.32789C131.573 5.21589 131.717 5.15989 131.893 5.15989H134.725C134.885 5.15989 135.021 5.21589 135.133 5.32789C135.261 5.43989 135.325 5.58389 135.325 5.75989V17.0399C135.325 17.2159 135.261 17.3599 135.133 17.4719C135.021 17.5839 134.885 17.6399 134.725 17.6399H131.893ZM131.869 3.35989C131.693 3.35989 131.549 3.30389 131.437 3.19189C131.325 3.07989 131.269 2.93589 131.269 2.75989V0.623891C131.269 0.447892 131.325 0.303892 131.437 0.191891C131.549 0.0638919 131.693 -0.000107765 131.869 -0.000107765H134.725C134.901 -0.000107765 135.045 0.0638919 135.157 0.191891C135.285 0.303892 135.349 0.447892 135.349 0.623891V2.75989C135.349 2.93589 135.285 3.07989 135.157 3.19189C135.045 3.30389 134.901 3.35989 134.725 3.35989H131.869ZM144.025 17.8799C142.681 17.8799 141.545 17.6639 140.617 17.2319C139.705 16.7999 139.001 16.1839 138.505 15.3839C138.025 14.5679 137.753 13.5999 137.689 12.4799C137.673 12.1599 137.665 11.7999 137.665 11.3999C137.665 10.9839 137.673 10.6239 137.689 10.3199C137.753 9.18389 138.041 8.21589 138.553 7.41589C139.065 6.61589 139.777 5.99989 140.689 5.56789C141.617 5.13589 142.729 4.91989 144.025 4.91989C145.337 4.91989 146.449 5.13589 147.361 5.56789C148.289 5.99989 149.009 6.61589 149.521 7.41589C150.033 8.21589 150.321 9.18389 150.385 10.3199C150.401 10.6239 150.409 10.9839 150.409 11.3999C150.409 11.7999 150.401 12.1599 150.385 12.4799C150.321 13.5999 150.041 14.5679 149.545 15.3839C149.065 16.1839 148.361 16.7999 147.433 17.2319C146.521 17.6639 145.385 17.8799 144.025 17.8799ZM144.025 14.9519C144.745 14.9519 145.265 14.7359 145.585 14.3039C145.921 13.8719 146.113 13.2239 146.161 12.3599C146.177 12.1199 146.185 11.7999 146.185 11.3999C146.185 10.9999 146.177 10.6799 146.161 10.4399C146.113 9.59189 145.921 8.95189 145.585 8.51989C145.265 8.07189 144.745 7.84789 144.025 7.84789C143.321 7.84789 142.801 8.07189 142.465 8.51989C142.129 8.95189 141.945 9.59189 141.913 10.4399C141.897 10.6799 141.889 10.9999 141.889 11.3999C141.889 11.7999 141.897 12.1199 141.913 12.3599C141.945 13.2239 142.129 13.8719 142.465 14.3039C142.801 14.7359 143.321 14.9519 144.025 14.9519Z" fill="#161C2D"/>
</svg>
